# xmcd CD database file generated by Grip 2.5
# 
# Track frame offsets:
#       180
#       1299
#       19623
#       41447
#       69119
#       96900
#       118165
#       144008
#       167680
#       209140
#       238960
#       268381
#       279265
#       301017
# 
# Disc length: 4209 seconds
# 
# Revision: 3
# Processed by: cddbd v1.4b41PL1 Copyright (c) Steve Scherf et al.
# Submitted via: Grip 2.5
# 
DISCID=bc106f0e
DTITLE=Kozmic Blue - Live At The Monterey
DYEAR=1900
DGENRE=
TTITLE0=Introduction
TTITLE1=Turtle Blues
TTITLE2=Talk Up
TTITLE3=Tell Mama
TTITLE4=Diamonds And Glass
TTITLE5=All For You
TTITLE6=Angel Wings
TTITLE7=Kozmic Blue
TTITLE8=Ball And Chain
TTITLE9=Sometimes I Feel Like A Motherless Child
TTITLE10=Follow Your Heart
TTITLE11=My Children's Laughter
TTITLE12=Live At The Monterey
TTITLE13=You Are My Baby
EXTD=
EXTT0=
EXTT1=
EXTT2=
EXTT3=
EXTT4=
EXTT5=
EXTT6=
EXTT7=
EXTT8=
EXTT9=
EXTT10=
EXTT11=
EXTT12=
EXTT13=
PLAYORDER=
